<?xml version="1.0" encoding="utf-8" standalone="no"?>
<!DOCTYPE svg PUBLIC "-//W3C//DTD SVG 1.1//EN"
  "http://www.w3.org/Graphics/SVG/1.1/DTD/svg11.dtd">
<svg xmlns:xlink="http://www.w3.org/1999/xlink" width="504pt" height="504pt" viewBox="0 0 504 504" xmlns="http://www.w3.org/2000/svg" version="1.1">
 <metadata>
  <rdf:RDF xmlns:dc="http://purl.org/dc/elements/1.1/" xmlns:cc="http://creativecommons.org/ns#" xmlns:rdf="http://www.w3.org/1999/02/22-rdf-syntax-ns#">
   <cc:Work>
    <dc:type rdf:resource="http://purl.org/dc/dcmitype/StillImage"/>
    <dc:date>2023-09-26T18:54:10.233093</dc:date>
    <dc:format>image/svg+xml</dc:format>
    <dc:creator>
     <cc:Agent>
      <dc:title>Matplotlib v3.5.1, https://matplotlib.org/</dc:title>
     </cc:Agent>
    </dc:creator>
   </cc:Work>
  </rdf:RDF>
 </metadata>
 <defs>
  <style type="text/css">*{stroke-linejoin: round; stroke-linecap: butt}</style>
 </defs>
 <g id="figure_1">
  <g id="patch_1">
   <path d="M 0 504 
L 504 504 
L 504 0 
L 0 0 
L 0 504 
z
" style="fill: none"/>
  </g>
  <g id="axes_1">
   <g id="patch_2">
    <path d="M 63 441 
L 453.6 441 
L 453.6 60.48 
L 63 60.48 
z
" style="fill: #ffffff"/>
   </g>
   <g id="patch_3">
    <path d="M 80.754545 441 
L 84.305455 441 
L 84.305455 440.915485 
L 80.754545 440.915485 
z
" clip-path="url(#p66f6b72af0)" style="fill: #1f77b4"/>
   </g>
   <g id="patch_4">
    <path d="M 84.305455 441 
L 87.856364 441 
L 87.856364 440.915485 
L 84.305455 440.915485 
z
" clip-path="url(#p66f6b72af0)" style="fill: #1f77b4"/>
   </g>
   <g id="patch_5">
    <path d="M 87.856364 441 
L 91.407273 441 
L 91.407273 440.83097 
L 87.856364 440.83097 
z
" clip-path="url(#p66f6b72af0)" style="fill: #1f77b4"/>
   </g>
   <g id="patch_6">
    <path d="M 91.407273 441 
L 94.958182 441 
L 94.958182 440.915485 
L 91.407273 440.915485 
z
" clip-path="url(#p66f6b72af0)" style="fill: #1f77b4"/>
   </g>
   <g id="patch_7">
    <path d="M 94.958182 441 
L 98.509091 441 
L 98.509091 440.66194 
L 94.958182 440.66194 
z
" clip-path="url(#p66f6b72af0)" style="fill: #1f77b4"/>
   </g>
   <g id="patch_8">
    <path d="M 98.509091 441 
L 102.06 441 
L 102.06 440.66194 
L 98.509091 440.66194 
z
" clip-path="url(#p66f6b72af0)" style="fill: #1f77b4"/>
   </g>
   <g id="patch_9">
    <path d="M 102.06 441 
L 105.610909 441 
L 105.610909 439.816791 
L 102.06 439.816791 
z
" clip-path="url(#p66f6b72af0)" style="fill: #1f77b4"/>
   </g>
   <g id="patch_10">
    <path d="M 105.610909 441 
L 109.161818 441 
L 109.161818 439.816791 
L 105.610909 439.816791 
z
" clip-path="url(#p66f6b72af0)" style="fill: #1f77b4"/>
   </g>
   <g id="patch_11">
    <path d="M 109.161818 441 
L 112.712727 441 
L 112.712727 439.985821 
L 109.161818 439.985821 
z
" clip-path="url(#p66f6b72af0)" style="fill: #1f77b4"/>
   </g>
   <g id="patch_12">
    <path d="M 112.712727 441 
L 116.263636 441 
L 116.263636 439.225187 
L 112.712727 439.225187 
z
" clip-path="url(#p66f6b72af0)" style="fill: #1f77b4"/>
   </g>
   <g id="patch_13">
    <path d="M 116.263636 441 
L 119.814545 441 
L 119.814545 439.056157 
L 116.263636 439.056157 
z
" clip-path="url(#p66f6b72af0)" style="fill: #1f77b4"/>
   </g>
   <g id="patch_14">
    <path d="M 119.814545 441 
L 123.365455 441 
L 123.365455 438.295522 
L 119.814545 438.295522 
z
" clip-path="url(#p66f6b72af0)" style="fill: #1f77b4"/>
   </g>
   <g id="patch_15">
    <path d="M 123.365455 441 
L 126.916364 441 
L 126.916364 439.056157 
L 123.365455 439.056157 
z
" clip-path="url(#p66f6b72af0)" style="fill: #1f77b4"/>
   </g>
   <g id="patch_16">
    <path d="M 126.916364 441 
L 130.467273 441 
L 130.467273 437.957463 
L 126.916364 437.957463 
z
" clip-path="url(#p66f6b72af0)" style="fill: #1f77b4"/>
   </g>
   <g id="patch_17">
    <path d="M 130.467273 441 
L 134.018182 441 
L 134.018182 436.858769 
L 130.467273 436.858769 
z
" clip-path="url(#p66f6b72af0)" style="fill: #1f77b4"/>
   </g>
   <g id="patch_18">
    <path d="M 134.018182 441 
L 137.569091 441 
L 137.569091 435.84459 
L 134.018182 435.84459 
z
" clip-path="url(#p66f6b72af0)" style="fill: #1f77b4"/>
   </g>
   <g id="patch_19">
    <path d="M 137.569091 441 
L 141.12 441 
L 141.12 435.67556 
L 137.569091 435.67556 
z
" clip-path="url(#p66f6b72af0)" style="fill: #1f77b4"/>
   </g>
   <g id="patch_20">
    <path d="M 141.12 441 
L 144.670909 441 
L 144.670909 438.211007 
L 141.12 438.211007 
z
" clip-path="url(#p66f6b72af0)" style="fill: #1f77b4"/>
   </g>
   <g id="patch_21">
    <path d="M 144.670909 441 
L 148.221818 441 
L 148.221818 440.070336 
L 144.670909 440.070336 
z
" clip-path="url(#p66f6b72af0)" style="fill: #1f77b4"/>
   </g>
   <g id="patch_22">
    <path d="M 148.221818 441 
L 151.772727 441 
L 151.772727 440.408396 
L 148.221818 440.408396 
z
" clip-path="url(#p66f6b72af0)" style="fill: #1f77b4"/>
   </g>
   <g id="patch_23">
    <path d="M 151.772727 441 
L 155.323636 441 
L 155.323636 439.394216 
L 151.772727 439.394216 
z
" clip-path="url(#p66f6b72af0)" style="fill: #1f77b4"/>
   </g>
   <g id="patch_24">
    <path d="M 155.323636 441 
L 158.874545 441 
L 158.874545 439.901306 
L 155.323636 439.901306 
z
" clip-path="url(#p66f6b72af0)" style="fill: #1f77b4"/>
   </g>
   <g id="patch_25">
    <path d="M 158.874545 441 
L 162.425455 441 
L 162.425455 438.802612 
L 158.874545 438.802612 
z
" clip-path="url(#p66f6b72af0)" style="fill: #1f77b4"/>
   </g>
   <g id="patch_26">
    <path d="M 162.425455 441 
L 165.976364 441 
L 165.976364 440.154851 
L 162.425455 440.154851 
z
" clip-path="url(#p66f6b72af0)" style="fill: #1f77b4"/>
   </g>
   <g id="patch_27">
    <path d="M 165.976364 441 
L 169.527273 441 
L 169.527273 419.871269 
L 165.976364 419.871269 
z
" clip-path="url(#p66f6b72af0)" style="fill: #1f77b4"/>
   </g>
   <g id="patch_28">
    <path d="M 169.527273 441 
L 173.078182 441 
L 173.078182 436.182649 
L 169.527273 436.182649 
z
" clip-path="url(#p66f6b72af0)" style="fill: #1f77b4"/>
   </g>
   <g id="patch_29">
    <path d="M 173.078182 441 
L 176.629091 441 
L 176.629091 437.957463 
L 173.078182 437.957463 
z
" clip-path="url(#p66f6b72af0)" style="fill: #1f77b4"/>
   </g>
   <g id="patch_30">
    <path d="M 176.629091 441 
L 180.18 441 
L 180.18 434.323321 
L 176.629091 434.323321 
z
" clip-path="url(#p66f6b72af0)" style="fill: #1f77b4"/>
   </g>
   <g id="patch_31">
    <path d="M 180.18 441 
L 183.730909 441 
L 183.730909 428.576306 
L 180.18 428.576306 
z
" clip-path="url(#p66f6b72af0)" style="fill: #1f77b4"/>
   </g>
   <g id="patch_32">
    <path d="M 183.730909 441 
L 187.281818 441 
L 187.281818 434.154291 
L 183.730909 434.154291 
z
" clip-path="url(#p66f6b72af0)" style="fill: #1f77b4"/>
   </g>
   <g id="patch_33">
    <path d="M 187.281818 441 
L 190.832727 441 
L 190.832727 436.351679 
L 187.281818 436.351679 
z
" clip-path="url(#p66f6b72af0)" style="fill: #1f77b4"/>
   </g>
   <g id="patch_34">
    <path d="M 190.832727 441 
L 194.383636 441 
L 194.383636 426.716978 
L 190.832727 426.716978 
z
" clip-path="url(#p66f6b72af0)" style="fill: #1f77b4"/>
   </g>
   <g id="patch_35">
    <path d="M 194.383636 441 
L 197.934545 441 
L 197.934545 428.238246 
L 194.383636 428.238246 
z
" clip-path="url(#p66f6b72af0)" style="fill: #1f77b4"/>
   </g>
   <g id="patch_36">
    <path d="M 197.934545 441 
L 201.485455 441 
L 201.485455 432.463993 
L 197.934545 432.463993 
z
" clip-path="url(#p66f6b72af0)" style="fill: #1f77b4"/>
   </g>
   <g id="patch_37">
    <path d="M 201.485455 441 
L 205.036364 441 
L 205.036364 433.647201 
L 201.485455 433.647201 
z
" clip-path="url(#p66f6b72af0)" style="fill: #1f77b4"/>
   </g>
   <g id="patch_38">
    <path d="M 205.036364 441 
L 208.587273 441 
L 208.587273 426.632463 
L 205.036364 426.632463 
z
" clip-path="url(#p66f6b72af0)" style="fill: #1f77b4"/>
   </g>
   <g id="patch_39">
    <path d="M 208.587273 441 
L 212.138182 441 
L 212.138182 424.097015 
L 208.587273 424.097015 
z
" clip-path="url(#p66f6b72af0)" style="fill: #1f77b4"/>
   </g>
   <g id="patch_40">
    <path d="M 212.138182 441 
L 215.689091 441 
L 215.689091 409.644963 
L 212.138182 409.644963 
z
" clip-path="url(#p66f6b72af0)" style="fill: #1f77b4"/>
   </g>
   <g id="patch_41">
    <path d="M 215.689091 441 
L 219.24 441 
L 219.24 410.828172 
L 215.689091 410.828172 
z
" clip-path="url(#p66f6b72af0)" style="fill: #1f77b4"/>
   </g>
   <g id="patch_42">
    <path d="M 219.24 441 
L 222.790909 441 
L 222.790909 409.137873 
L 219.24 409.137873 
z
" clip-path="url(#p66f6b72af0)" style="fill: #1f77b4"/>
   </g>
   <g id="patch_43">
    <path d="M 222.790909 441 
L 226.341818 441 
L 226.341818 409.898507 
L 222.790909 409.898507 
z
" clip-path="url(#p66f6b72af0)" style="fill: #1f77b4"/>
   </g>
   <g id="patch_44">
    <path d="M 226.341818 441 
L 229.892727 441 
L 229.892727 412.34944 
L 226.341818 412.34944 
z
" clip-path="url(#p66f6b72af0)" style="fill: #1f77b4"/>
   </g>
   <g id="patch_45">
    <path d="M 229.892727 441 
L 233.443636 441 
L 233.443636 414.631343 
L 229.892727 414.631343 
z
" clip-path="url(#p66f6b72af0)" style="fill: #1f77b4"/>
   </g>
   <g id="patch_46">
    <path d="M 233.443636 441 
L 236.994545 441 
L 236.994545 415.983582 
L 233.443636 415.983582 
z
" clip-path="url(#p66f6b72af0)" style="fill: #1f77b4"/>
   </g>
   <g id="patch_47">
    <path d="M 236.994545 441 
L 240.545455 441 
L 240.545455 406.68694 
L 236.994545 406.68694 
z
" clip-path="url(#p66f6b72af0)" style="fill: #1f77b4"/>
   </g>
   <g id="patch_48">
    <path d="M 240.545455 441 
L 244.096364 441 
L 244.096364 402.883769 
L 240.545455 402.883769 
z
" clip-path="url(#p66f6b72af0)" style="fill: #1f77b4"/>
   </g>
   <g id="patch_49">
    <path d="M 244.096364 441 
L 247.647273 441 
L 247.647273 391.305224 
L 244.096364 391.305224 
z
" clip-path="url(#p66f6b72af0)" style="fill: #1f77b4"/>
   </g>
   <g id="patch_50">
    <path d="M 247.647273 441 
L 251.198182 441 
L 251.198182 363.837873 
L 247.647273 363.837873 
z
" clip-path="url(#p66f6b72af0)" style="fill: #1f77b4"/>
   </g>
   <g id="patch_51">
    <path d="M 251.198182 441 
L 254.749091 441 
L 254.749091 355.132836 
L 251.198182 355.132836 
z
" clip-path="url(#p66f6b72af0)" style="fill: #1f77b4"/>
   </g>
   <g id="patch_52">
    <path d="M 254.749091 441 
L 258.3 441 
L 258.3 376.430597 
L 254.749091 376.430597 
z
" clip-path="url(#p66f6b72af0)" style="fill: #1f77b4"/>
   </g>
   <g id="patch_53">
    <path d="M 258.3 441 
L 261.850909 441 
L 261.850909 365.105597 
L 258.3 365.105597 
z
" clip-path="url(#p66f6b72af0)" style="fill: #1f77b4"/>
   </g>
   <g id="patch_54">
    <path d="M 261.850909 441 
L 265.401818 441 
L 265.401818 358.344403 
L 261.850909 358.344403 
z
" clip-path="url(#p66f6b72af0)" style="fill: #1f77b4"/>
   </g>
   <g id="patch_55">
    <path d="M 265.401818 441 
L 268.952727 441 
L 268.952727 366.88041 
L 265.401818 366.88041 
z
" clip-path="url(#p66f6b72af0)" style="fill: #1f77b4"/>
   </g>
   <g id="patch_56">
    <path d="M 268.952727 441 
L 272.503636 441 
L 272.503636 316.340485 
L 268.952727 316.340485 
z
" clip-path="url(#p66f6b72af0)" style="fill: #1f77b4"/>
   </g>
   <g id="patch_57">
    <path d="M 272.503636 441 
L 276.054545 441 
L 276.054545 332.989925 
L 272.503636 332.989925 
z
" clip-path="url(#p66f6b72af0)" style="fill: #1f77b4"/>
   </g>
   <g id="patch_58">
    <path d="M 276.054545 441 
L 279.605455 441 
L 279.605455 324.284888 
L 276.054545 324.284888 
z
" clip-path="url(#p66f6b72af0)" style="fill: #1f77b4"/>
   </g>
   <g id="patch_59">
    <path d="M 279.605455 441 
L 283.156364 441 
L 283.156364 237.234515 
L 279.605455 237.234515 
z
" clip-path="url(#p66f6b72af0)" style="fill: #1f77b4"/>
   </g>
   <g id="patch_60">
    <path d="M 283.156364 441 
L 286.707273 441 
L 286.707273 251.010448 
L 283.156364 251.010448 
z
" clip-path="url(#p66f6b72af0)" style="fill: #1f77b4"/>
   </g>
   <g id="patch_61">
    <path d="M 286.707273 441 
L 290.258182 441 
L 290.258182 170.721269 
L 286.707273 170.721269 
z
" clip-path="url(#p66f6b72af0)" style="fill: #1f77b4"/>
   </g>
   <g id="patch_62">
    <path d="M 290.258182 441 
L 293.809091 441 
L 293.809091 78.6 
L 290.258182 78.6 
z
" clip-path="url(#p66f6b72af0)" style="fill: #1f77b4"/>
   </g>
   <g id="patch_63">
    <path d="M 293.809091 441 
L 297.36 441 
L 297.36 201.146642 
L 293.809091 201.146642 
z
" clip-path="url(#p66f6b72af0)" style="fill: #1f77b4"/>
   </g>
   <g id="patch_64">
    <path d="M 297.36 441 
L 300.910909 441 
L 300.910909 281.858396 
L 297.36 281.858396 
z
" clip-path="url(#p66f6b72af0)" style="fill: #1f77b4"/>
   </g>
   <g id="patch_65">
    <path d="M 300.910909 441 
L 304.461818 441 
L 304.461818 330.369963 
L 300.910909 330.369963 
z
" clip-path="url(#p66f6b72af0)" style="fill: #1f77b4"/>
   </g>
   <g id="patch_66">
    <path d="M 304.461818 441 
L 308.012727 441 
L 308.012727 319.890112 
L 304.461818 319.890112 
z
" clip-path="url(#p66f6b72af0)" style="fill: #1f77b4"/>
   </g>
   <g id="patch_67">
    <path d="M 308.012727 441 
L 311.563636 441 
L 311.563636 292.676306 
L 308.012727 292.676306 
z
" clip-path="url(#p66f6b72af0)" style="fill: #1f77b4"/>
   </g>
   <g id="patch_68">
    <path d="M 311.563636 441 
L 315.114545 441 
L 315.114545 314.988246 
L 311.563636 314.988246 
z
" clip-path="url(#p66f6b72af0)" style="fill: #1f77b4"/>
   </g>
   <g id="patch_69">
    <path d="M 315.114545 441 
L 318.665455 441 
L 318.665455 349.554851 
L 315.114545 349.554851 
z
" clip-path="url(#p66f6b72af0)" style="fill: #1f77b4"/>
   </g>
   <g id="patch_70">
    <path d="M 318.665455 441 
L 322.216364 441 
L 322.216364 372.373881 
L 318.665455 372.373881 
z
" clip-path="url(#p66f6b72af0)" style="fill: #1f77b4"/>
   </g>
   <g id="patch_71">
    <path d="M 322.216364 441 
L 325.767273 441 
L 325.767273 357.161194 
L 322.216364 357.161194 
z
" clip-path="url(#p66f6b72af0)" style="fill: #1f77b4"/>
   </g>
   <g id="patch_72">
    <path d="M 325.767273 441 
L 329.318182 441 
L 329.318182 336.201493 
L 325.767273 336.201493 
z
" clip-path="url(#p66f6b72af0)" style="fill: #1f77b4"/>
   </g>
   <g id="patch_73">
    <path d="M 329.318182 441 
L 332.869091 441 
L 332.869091 366.457836 
L 329.318182 366.457836 
z
" clip-path="url(#p66f6b72af0)" style="fill: #1f77b4"/>
   </g>
   <g id="patch_74">
    <path d="M 332.869091 441 
L 336.42 441 
L 336.42 376.599627 
L 332.869091 376.599627 
z
" clip-path="url(#p66f6b72af0)" style="fill: #1f77b4"/>
   </g>
   <g id="patch_75">
    <path d="M 336.42 441 
L 339.970909 441 
L 339.970909 380.233769 
L 336.42 380.233769 
z
" clip-path="url(#p66f6b72af0)" style="fill: #1f77b4"/>
   </g>
   <g id="patch_76">
    <path d="M 339.970909 441 
L 343.521818 441 
L 343.521818 407.36306 
L 339.970909 407.36306 
z
" clip-path="url(#p66f6b72af0)" style="fill: #1f77b4"/>
   </g>
   <g id="patch_77">
    <path d="M 343.521818 441 
L 347.072727 441 
L 347.072727 422.237687 
L 343.521818 422.237687 
z
" clip-path="url(#p66f6b72af0)" style="fill: #1f77b4"/>
   </g>
   <g id="patch_78">
    <path d="M 347.072727 441 
L 350.623636 441 
L 350.623636 426.970522 
L 347.072727 426.970522 
z
" clip-path="url(#p66f6b72af0)" style="fill: #1f77b4"/>
   </g>
   <g id="patch_79">
    <path d="M 350.623636 441 
L 354.174545 441 
L 354.174545 421.223507 
L 350.623636 421.223507 
z
" clip-path="url(#p66f6b72af0)" style="fill: #1f77b4"/>
   </g>
   <g id="patch_80">
    <path d="M 354.174545 441 
L 357.725455 441 
L 357.725455 418.603545 
L 354.174545 418.603545 
z
" clip-path="url(#p66f6b72af0)" style="fill: #1f77b4"/>
   </g>
   <g id="patch_81">
    <path d="M 357.725455 441 
L 361.276364 441 
L 361.276364 417.504851 
L 357.725455 417.504851 
z
" clip-path="url(#p66f6b72af0)" style="fill: #1f77b4"/>
   </g>
   <g id="patch_82">
    <path d="M 361.276364 441 
L 364.827273 441 
L 364.827273 426.632463 
L 361.276364 426.632463 
z
" clip-path="url(#p66f6b72af0)" style="fill: #1f77b4"/>
   </g>
   <g id="patch_83">
    <path d="M 364.827273 441 
L 368.378182 441 
L 368.378182 426.125373 
L 364.827273 426.125373 
z
" clip-path="url(#p66f6b72af0)" style="fill: #1f77b4"/>
   </g>
   <g id="patch_84">
    <path d="M 368.378182 441 
L 371.929091 441 
L 371.929091 420.969963 
L 368.378182 420.969963 
z
" clip-path="url(#p66f6b72af0)" style="fill: #1f77b4"/>
   </g>
   <g id="patch_85">
    <path d="M 371.929091 441 
L 375.48 441 
L 375.48 426.040858 
L 371.929091 426.040858 
z
" clip-path="url(#p66f6b72af0)" style="fill: #1f77b4"/>
   </g>
   <g id="patch_86">
    <path d="M 375.48 441 
L 379.030909 441 
L 379.030909 432.125933 
L 375.48 432.125933 
z
" clip-path="url(#p66f6b72af0)" style="fill: #1f77b4"/>
   </g>
   <g id="patch_87">
    <path d="M 379.030909 441 
L 382.581818 441 
L 382.581818 428.914366 
L 379.030909 428.914366 
z
" clip-path="url(#p66f6b72af0)" style="fill: #1f77b4"/>
   </g>
   <g id="patch_88">
    <path d="M 382.581818 441 
L 386.132727 441 
L 386.132727 428.069216 
L 382.581818 428.069216 
z
" clip-path="url(#p66f6b72af0)" style="fill: #1f77b4"/>
   </g>
   <g id="patch_89">
    <path d="M 386.132727 441 
L 389.683636 441 
L 389.683636 431.196269 
L 386.132727 431.196269 
z
" clip-path="url(#p66f6b72af0)" style="fill: #1f77b4"/>
   </g>
   <g id="patch_90">
    <path d="M 389.683636 441 
L 393.234545 441 
L 393.234545 436.098134 
L 389.683636 436.098134 
z
" clip-path="url(#p66f6b72af0)" style="fill: #1f77b4"/>
   </g>
   <g id="patch_91">
    <path d="M 393.234545 441 
L 396.785455 441 
L 396.785455 434.745896 
L 393.234545 434.745896 
z
" clip-path="url(#p66f6b72af0)" style="fill: #1f77b4"/>
   </g>
   <g id="patch_92">
    <path d="M 396.785455 441 
L 400.336364 441 
L 400.336364 433.055597 
L 396.785455 433.055597 
z
" clip-path="url(#p66f6b72af0)" style="fill: #1f77b4"/>
   </g>
   <g id="patch_93">
    <path d="M 400.336364 441 
L 403.887273 441 
L 403.887273 439.309701 
L 400.336364 439.309701 
z
" clip-path="url(#p66f6b72af0)" style="fill: #1f77b4"/>
   </g>
   <g id="patch_94">
    <path d="M 403.887273 441 
L 407.438182 441 
L 407.438182 439.309701 
L 403.887273 439.309701 
z
" clip-path="url(#p66f6b72af0)" style="fill: #1f77b4"/>
   </g>
   <g id="patch_95">
    <path d="M 407.438182 441 
L 410.989091 441 
L 410.989091 419.364179 
L 407.438182 419.364179 
z
" clip-path="url(#p66f6b72af0)" style="fill: #1f77b4"/>
   </g>
   <g id="patch_96">
    <path d="M 410.989091 441 
L 414.54 441 
L 414.54 440.154851 
L 410.989091 440.154851 
z
" clip-path="url(#p66f6b72af0)" style="fill: #1f77b4"/>
   </g>
   <g id="patch_97">
    <path d="M 414.54 441 
L 418.090909 441 
L 418.090909 440.83097 
L 414.54 440.83097 
z
" clip-path="url(#p66f6b72af0)" style="fill: #1f77b4"/>
   </g>
   <g id="patch_98">
    <path d="M 418.090909 441 
L 421.641818 441 
L 421.641818 440.83097 
L 418.090909 440.83097 
z
" clip-path="url(#p66f6b72af0)" style="fill: #1f77b4"/>
   </g>
   <g id="patch_99">
    <path d="M 421.641818 441 
L 425.192727 441 
L 425.192727 441 
L 421.641818 441 
z
" clip-path="url(#p66f6b72af0)" style="fill: #1f77b4"/>
   </g>
   <g id="patch_100">
    <path d="M 425.192727 441 
L 428.743636 441 
L 428.743636 441 
L 425.192727 441 
z
" clip-path="url(#p66f6b72af0)" style="fill: #1f77b4"/>
   </g>
   <g id="patch_101">
    <path d="M 428.743636 441 
L 432.294545 441 
L 432.294545 440.83097 
L 428.743636 440.83097 
z
" clip-path="url(#p66f6b72af0)" style="fill: #1f77b4"/>
   </g>
   <g id="patch_102">
    <path d="M 432.294545 441 
L 435.845455 441 
L 435.845455 440.49291 
L 432.294545 440.49291 
z
" clip-path="url(#p66f6b72af0)" style="fill: #1f77b4"/>
   </g>
   <g id="matplotlib.axis_1">
    <g id="xtick_1">
     <g id="line2d_1">
      <path d="M 134.968419 441 
L 134.968419 60.48 
" clip-path="url(#p66f6b72af0)" style="fill: none; stroke: #b0b0b0; stroke-width: 0.8; stroke-linecap: square"/>
     </g>
     <g id="line2d_2">
      <defs>
       <path id="m1124298bec" d="M 0 0 
L 0 3.5 
" style="stroke: #000000; stroke-width: 0.8"/>
      </defs>
      <g>
       <use xlink:href="#m1124298bec" x="134.968419" y="441" style="stroke: #000000; stroke-width: 0.8"/>
      </g>
     </g>
     <g id="text_1">
      <!-- −2 -->
      <g transform="translate(127.597326 455.598437)scale(0.1 -0.1)">
       <defs>
        <path id="DejaVuSans-2212" d="M 678 2272 
L 4684 2272 
L 4684 1741 
L 678 1741 
L 678 2272 
z
" transform="scale(0.015625)"/>
        <path id="DejaVuSans-32" d="M 1228 531 
L 3431 531 
L 3431 0 
L 469 0 
L 469 531 
Q 828 903 1448 1529 
Q 2069 2156 2228 2338 
Q 2531 2678 2651 2914 
Q 2772 3150 2772 3378 
Q 2772 3750 2511 3984 
Q 2250 4219 1831 4219 
Q 1534 4219 1204 4116 
Q 875 4013 500 3803 
L 500 4441 
Q 881 4594 1212 4672 
Q 1544 4750 1819 4750 
Q 2544 4750 2975 4387 
Q 3406 4025 3406 3419 
Q 3406 3131 3298 2873 
Q 3191 2616 2906 2266 
Q 2828 2175 2409 1742 
Q 1991 1309 1228 531 
z
" transform="scale(0.015625)"/>
       </defs>
       <use xlink:href="#DejaVuSans-2212"/>
       <use xlink:href="#DejaVuSans-32" x="83.789062"/>
      </g>
     </g>
    </g>
    <g id="xtick_2">
     <g id="line2d_3">
      <path d="M 213.497187 441 
L 213.497187 60.48 
" clip-path="url(#p66f6b72af0)" style="fill: none; stroke: #b0b0b0; stroke-width: 0.8; stroke-linecap: square"/>
     </g>
     <g id="line2d_4">
      <g>
       <use xlink:href="#m1124298bec" x="213.497187" y="441" style="stroke: #000000; stroke-width: 0.8"/>
      </g>
     </g>
     <g id="text_2">
      <!-- −1 -->
      <g transform="translate(206.126093 455.598437)scale(0.1 -0.1)">
       <defs>
        <path id="DejaVuSans-31" d="M 794 531 
L 1825 531 
L 1825 4091 
L 703 3866 
L 703 4441 
L 1819 4666 
L 2450 4666 
L 2450 531 
L 3481 531 
L 3481 0 
L 794 0 
L 794 531 
z
" transform="scale(0.015625)"/>
       </defs>
       <use xlink:href="#DejaVuSans-2212"/>
       <use xlink:href="#DejaVuSans-31" x="83.789062"/>
      </g>
     </g>
    </g>
    <g id="xtick_3">
     <g id="line2d_5">
      <path d="M 292.025954 441 
L 292.025954 60.48 
" clip-path="url(#p66f6b72af0)" style="fill: none; stroke: #b0b0b0; stroke-width: 0.8; stroke-linecap: square"/>
     </g>
     <g id="line2d_6">
      <g>
       <use xlink:href="#m1124298bec" x="292.025954" y="441" style="stroke: #000000; stroke-width: 0.8"/>
      </g>
     </g>
     <g id="text_3">
      <!-- 0 -->
      <g transform="translate(288.844704 455.598437)scale(0.1 -0.1)">
       <defs>
        <path id="DejaVuSans-30" d="M 2034 4250 
Q 1547 4250 1301 3770 
Q 1056 3291 1056 2328 
Q 1056 1369 1301 889 
Q 1547 409 2034 409 
Q 2525 409 2770 889 
Q 3016 1369 3016 2328 
Q 3016 3291 2770 3770 
Q 2525 4250 2034 4250 
z
M 2034 4750 
Q 2819 4750 3233 4129 
Q 3647 3509 3647 2328 
Q 3647 1150 3233 529 
Q 2819 -91 2034 -91 
Q 1250 -91 836 529 
Q 422 1150 422 2328 
Q 422 3509 836 4129 
Q 1250 4750 2034 4750 
z
" transform="scale(0.015625)"/>
       </defs>
       <use xlink:href="#DejaVuSans-30"/>
      </g>
     </g>
    </g>
    <g id="xtick_4">
     <g id="line2d_7">
      <path d="M 370.554721 441 
L 370.554721 60.48 
" clip-path="url(#p66f6b72af0)" style="fill: none; stroke: #b0b0b0; stroke-width: 0.8; stroke-linecap: square"/>
     </g>
     <g id="line2d_8">
      <g>
       <use xlink:href="#m1124298bec" x="370.554721" y="441" style="stroke: #000000; stroke-width: 0.8"/>
      </g>
     </g>
     <g id="text_4">
      <!-- 1 -->
      <g transform="translate(367.373471 455.598437)scale(0.1 -0.1)">
       <use xlink:href="#DejaVuSans-31"/>
      </g>
     </g>
    </g>
    <g id="xtick_5">
     <g id="line2d_9">
      <path d="M 449.083489 441 
L 449.083489 60.48 
" clip-path="url(#p66f6b72af0)" style="fill: none; stroke: #b0b0b0; stroke-width: 0.8; stroke-linecap: square"/>
     </g>
     <g id="line2d_10">
      <g>
       <use xlink:href="#m1124298bec" x="449.083489" y="441" style="stroke: #000000; stroke-width: 0.8"/>
      </g>
     </g>
     <g id="text_5">
      <!-- 2 -->
      <g transform="translate(445.902239 455.598437)scale(0.1 -0.1)">
       <use xlink:href="#DejaVuSans-32"/>
      </g>
     </g>
    </g>
   </g>
   <g id="matplotlib.axis_2">
    <g id="ytick_1">
     <g id="line2d_11">
      <path d="M 63 441 
L 453.6 441 
" clip-path="url(#p66f6b72af0)" style="fill: none; stroke: #b0b0b0; stroke-width: 0.8; stroke-linecap: square"/>
     </g>
     <g id="line2d_12">
      <defs>
       <path id="m77616b3a04" d="M 0 0 
L -3.5 0 
" style="stroke: #000000; stroke-width: 0.8"/>
      </defs>
      <g>
       <use xlink:href="#m77616b3a04" x="63" y="441" style="stroke: #000000; stroke-width: 0.8"/>
      </g>
     </g>
     <g id="text_6">
      <!-- 0 -->
      <g transform="translate(49.6375 444.799219)scale(0.1 -0.1)">
       <use xlink:href="#DejaVuSans-30"/>
      </g>
     </g>
    </g>
    <g id="ytick_2">
     <g id="line2d_13">
      <path d="M 63 356.485075 
L 453.6 356.485075 
" clip-path="url(#p66f6b72af0)" style="fill: none; stroke: #b0b0b0; stroke-width: 0.8; stroke-linecap: square"/>
     </g>
     <g id="line2d_14">
      <g>
       <use xlink:href="#m77616b3a04" x="63" y="356.485075" style="stroke: #000000; stroke-width: 0.8"/>
      </g>
     </g>
     <g id="text_7">
      <!-- 1000 -->
      <g transform="translate(30.55 360.284293)scale(0.1 -0.1)">
       <use xlink:href="#DejaVuSans-31"/>
       <use xlink:href="#DejaVuSans-30" x="63.623047"/>
       <use xlink:href="#DejaVuSans-30" x="127.246094"/>
       <use xlink:href="#DejaVuSans-30" x="190.869141"/>
      </g>
     </g>
    </g>
    <g id="ytick_3">
     <g id="line2d_15">
      <path d="M 63 271.970149 
L 453.6 271.970149 
" clip-path="url(#p66f6b72af0)" style="fill: none; stroke: #b0b0b0; stroke-width: 0.8; stroke-linecap: square"/>
     </g>
     <g id="line2d_16">
      <g>
       <use xlink:href="#m77616b3a04" x="63" y="271.970149" style="stroke: #000000; stroke-width: 0.8"/>
      </g>
     </g>
     <g id="text_8">
      <!-- 2000 -->
      <g transform="translate(30.55 275.769368)scale(0.1 -0.1)">
       <use xlink:href="#DejaVuSans-32"/>
       <use xlink:href="#DejaVuSans-30" x="63.623047"/>
       <use xlink:href="#DejaVuSans-30" x="127.246094"/>
       <use xlink:href="#DejaVuSans-30" x="190.869141"/>
      </g>
     </g>
    </g>
    <g id="ytick_4">
     <g id="line2d_17">
      <path d="M 63 187.455224 
L 453.6 187.455224 
" clip-path="url(#p66f6b72af0)" style="fill: none; stroke: #b0b0b0; stroke-width: 0.8; stroke-linecap: square"/>
     </g>
     <g id="line2d_18">
      <g>
       <use xlink:href="#m77616b3a04" x="63" y="187.455224" style="stroke: #000000; stroke-width: 0.8"/>
      </g>
     </g>
     <g id="text_9">
      <!-- 3000 -->
      <g transform="translate(30.55 191.254443)scale(0.1 -0.1)">
       <defs>
        <path id="DejaVuSans-33" d="M 2597 2516 
Q 3050 2419 3304 2112 
Q 3559 1806 3559 1356 
Q 3559 666 3084 287 
Q 2609 -91 1734 -91 
Q 1441 -91 1130 -33 
Q 819 25 488 141 
L 488 750 
Q 750 597 1062 519 
Q 1375 441 1716 441 
Q 2309 441 2620 675 
Q 2931 909 2931 1356 
Q 2931 1769 2642 2001 
Q 2353 2234 1838 2234 
L 1294 2234 
L 1294 2753 
L 1863 2753 
Q 2328 2753 2575 2939 
Q 2822 3125 2822 3475 
Q 2822 3834 2567 4026 
Q 2313 4219 1838 4219 
Q 1578 4219 1281 4162 
Q 984 4106 628 3988 
L 628 4550 
Q 988 4650 1302 4700 
Q 1616 4750 1894 4750 
Q 2613 4750 3031 4423 
Q 3450 4097 3450 3541 
Q 3450 3153 3228 2886 
Q 3006 2619 2597 2516 
z
" transform="scale(0.015625)"/>
       </defs>
       <use xlink:href="#DejaVuSans-33"/>
       <use xlink:href="#DejaVuSans-30" x="63.623047"/>
       <use xlink:href="#DejaVuSans-30" x="127.246094"/>
       <use xlink:href="#DejaVuSans-30" x="190.869141"/>
      </g>
     </g>
    </g>
    <g id="ytick_5">
     <g id="line2d_19">
      <path d="M 63 102.940299 
L 453.6 102.940299 
" clip-path="url(#p66f6b72af0)" style="fill: none; stroke: #b0b0b0; stroke-width: 0.8; stroke-linecap: square"/>
     </g>
     <g id="line2d_20">
      <g>
       <use xlink:href="#m77616b3a04" x="63" y="102.940299" style="stroke: #000000; stroke-width: 0.8"/>
      </g>
     </g>
     <g id="text_10">
      <!-- 4000 -->
      <g transform="translate(30.55 106.739517)scale(0.1 -0.1)">
       <defs>
        <path id="DejaVuSans-34" d="M 2419 4116 
L 825 1625 
L 2419 1625 
L 2419 4116 
z
M 2253 4666 
L 3047 4666 
L 3047 1625 
L 3713 1625 
L 3713 1100 
L 3047 1100 
L 3047 0 
L 2419 0 
L 2419 1100 
L 313 1100 
L 313 1709 
L 2253 4666 
z
" transform="scale(0.015625)"/>
       </defs>
       <use xlink:href="#DejaVuSans-34"/>
       <use xlink:href="#DejaVuSans-30" x="63.623047"/>
       <use xlink:href="#DejaVuSans-30" x="127.246094"/>
       <use xlink:href="#DejaVuSans-30" x="190.869141"/>
      </g>
     </g>
    </g>
   </g>
   <g id="patch_103">
    <path d="M 63 441 
L 63 60.48 
" style="fill: none; stroke: #000000; stroke-width: 0.8; stroke-linejoin: miter; stroke-linecap: square"/>
   </g>
   <g id="patch_104">
    <path d="M 453.6 441 
L 453.6 60.48 
" style="fill: none; stroke: #000000; stroke-width: 0.8; stroke-linejoin: miter; stroke-linecap: square"/>
   </g>
   <g id="patch_105">
    <path d="M 63 441 
L 453.6 441 
" style="fill: none; stroke: #000000; stroke-width: 0.8; stroke-linejoin: miter; stroke-linecap: square"/>
   </g>
   <g id="patch_106">
    <path d="M 63 60.48 
L 453.6 60.48 
" style="fill: none; stroke: #000000; stroke-width: 0.8; stroke-linejoin: miter; stroke-linecap: square"/>
   </g>
  </g>
 </g>
 <defs>
  <clipPath id="p66f6b72af0">
   <rect x="63" y="60.48" width="390.6" height="380.52"/>
  </clipPath>
 </defs>
</svg>
